<?xml version="1.0" encoding="UTF-8" standalone="no"?>
<svg
   viewBox="-5 -10 91.801003 95.097603"
   version="1.1"
   id="svg9"
   sodipodi:docname="Calendar-Icon.svg"
   width="91.801003"
   height="95.097603"
   inkscape:version="1.4.2 (f4327f4, 2025-05-13)"
   xmlns:inkscape="http://www.inkscape.org/namespaces/inkscape"
   xmlns:sodipodi="http://sodipodi.sourceforge.net/DTD/sodipodi-0.dtd"
   xmlns="http://www.w3.org/2000/svg"
   xmlns:svg="http://www.w3.org/2000/svg">
  <defs
     id="defs9" />
  <sodipodi:namedview
     id="namedview9"
     pagecolor="#ffffff"
     bordercolor="#000000"
     borderopacity="0.25"
     inkscape:showpageshadow="2"
     inkscape:pageopacity="0.0"
     inkscape:pagecheckerboard="0"
     inkscape:deskcolor="#d1d1d1"
     inkscape:zoom="5.9777778"
     inkscape:cx="45.836431"
     inkscape:cy="41.570632"
     inkscape:window-width="1920"
     inkscape:window-height="1009"
     inkscape:window-x="1912"
     inkscape:window-y="-8"
     inkscape:window-maximized="1"
     inkscape:current-layer="svg9" />
  <path
     d="m 16.1996,48.398 h 5.8008 c 2.1992,0 3.8984,-1.8008 3.8984,-3.8984 v -5.8008 c 0,-2.1992 -1.8008,-3.8984 -3.8984,-3.8984 h -5.8008 c -2.1992,0 -3.8984,1.8008 -3.8984,3.8984 v 5.8008 c 0,2.1016 1.6992,3.8984 3.8984,3.8984 z"
     id="path1" />
  <path
     d="m 37.8016,48.398 h 5.8008 c 2.1992,0 3.8984,-1.8008 3.8984,-3.8984 v -5.8008 c 0,-2.1992 -1.8008,-3.8984 -3.8984,-3.8984 h -5.8008 c -2.1992,0 -3.8984,1.8008 -3.8984,3.8984 v 5.8008 c 0,2.1016 1.6992,3.8984 3.8984,3.8984 z"
     id="path2" />
  <path
     d="m 37.8016,69.199 h 5.8008 c 2.1992,0 3.8984,-1.8008 3.8984,-3.8984 v -5.8008 c 0,-2.1992 -1.8008,-3.8984 -3.8984,-3.8984 h -5.8008 c -2.1992,0 -3.8984,1.8008 -3.8984,3.8984 v 5.8008 c 0,2.0977 1.6992,3.8984 3.8984,3.8984 z"
     id="path3" />
  <path
     d="m 16.1996,69.199 h 5.8008 c 2.1992,0 3.8984,-1.8008 3.8984,-3.8984 v -5.8008 c 0,-2.1992 -1.8008,-3.8984 -3.8984,-3.8984 h -5.8008 c -2.1992,0 -3.8984,1.8008 -3.8984,3.8984 v 5.8008 c 0,2.0977 1.6992,3.8984 3.8984,3.8984 z"
     id="path4" />
  <path
     d="m 59.4036,48.398 h 5.8008 c 2.1992,0 3.8984,-1.8008 3.8984,-3.8984 v -5.8008 c 0,-2.1992 -1.8008,-3.8984 -3.8984,-3.8984 h -5.8008 c -2.1992,0 -3.8984,1.8008 -3.8984,3.8984 v 5.8008 c -0.0039,2.1016 1.6953,3.8984 3.8984,3.8984 z"
     id="path5" />
  <path
     d="m 59.4036,69.199 h 5.8008 c 2.1992,0 3.8984,-1.8008 3.8984,-3.8984 v -5.8008 c 0,-2.1992 -1.8008,-3.8984 -3.8984,-3.8984 h -5.8008 c -2.1992,0 -3.8984,1.8008 -3.8984,3.8984 v 5.8008 c -0.0039,2.0977 1.6953,3.8984 3.8984,3.8984 z"
     id="path6" />
  <path
     d="m 19.1026,8.398 c 2.1992,0 4,-1.8008 4,-4 V -6 c 0,-2.1992 -1.8008,-4 -4,-4 -2.1992,0 -4,1.8008 -4,4 V 4.5 c 0.09766,2.1016 1.8008,3.8984 4,3.8984 z"
     id="path7" />
  <path
     d="m 62.3016,8.398 c 2.1992,0 4,-1.8008 4,-4 V -6 c 0,-2.1992 -1.8008,-4 -4,-4 -2.1992,0 -4,1.8008 -4,4 V 4.5 c 0.10156,2.1016 1.8008,3.8984 4,3.8984 z"
     id="path8" />
  <path
     d="m 74.6996,0.102 h -3.5 v 4.3984 c 0,4.8984 -4,8.8008 -8.8008,8.8008 -4.8008,0 -8.8008,-4 -8.8008,-8.8008 V 0.1996 H 28 v 4.3008 c 0,4.8984 -4,8.8008 -8.8008,8.8008 -4.8984,0 -8.8008,-4 -8.8008,-8.8008 V 0.1996 H 7 c -6.6016,0 -12,5.3984 -12,12 v 60.898 c 0,6.6016 5.3984,12 12,12 h 67.801 c 6.6016,0 12,-5.3984 12,-12 v -60.996 c -0.10156,-6.6016 -5.5,-12 -12.102,-12 z M 78.9027,73 c 0,2.3008 -1.8984,4.1992 -4.1992,4.1992 H 6.9025 C 4.6017,77.1992 2.7033,75.3008 2.7033,73 L 2.6994,26.602 h 76.301 V 73 Z"
     id="path9" />
</svg>
