<?xml version="1.0" encoding="UTF-8" standalone="no"?>
<svg
   x="0px"
   y="0px"
   viewBox="0 0 384 512"
   enable-background="new 0 0 512 512"
   xml:space="preserve"
   version="1.1"
   id="svg1"
   sodipodi:docname="Lock-Icon.svg"
   width="384"
   height="512"
   inkscape:version="1.4.2 (f4327f4, 2025-05-13)"
   xmlns:inkscape="http://www.inkscape.org/namespaces/inkscape"
   xmlns:sodipodi="http://sodipodi.sourceforge.net/DTD/sodipodi-0.dtd"
   xmlns="http://www.w3.org/2000/svg"
   xmlns:svg="http://www.w3.org/2000/svg"><defs
     id="defs1" /><sodipodi:namedview
     id="namedview1"
     pagecolor="#ffffff"
     bordercolor="#000000"
     borderopacity="0.25"
     inkscape:showpageshadow="2"
     inkscape:pageopacity="0.0"
     inkscape:pagecheckerboard="0"
     inkscape:deskcolor="#d1d1d1"
     inkscape:zoom="1.2609375"
     inkscape:cx="191.92069"
     inkscape:cy="320"
     inkscape:window-width="1920"
     inkscape:window-height="1009"
     inkscape:window-x="1912"
     inkscape:window-y="-8"
     inkscape:window-maximized="1"
     inkscape:current-layer="svg1" /><path
     d="M 320,224 V 128 C 320,57.438 262.594,0 192,0 121.422,0 64,57.438 64,128 v 96 C 28.656,224 0,252.656 0,288 v 160 c 0,35.344 28.656,64 64,64 h 256 c 35.344,0 64,-28.656 64,-64 V 288 c 0,-35.344 -28.656,-64 -64,-64 z M 208,379.094 V 432 c 0,8.844 -7.156,16 -16,16 -8.844,0 -16,-7.156 -16,-16 v -52.906 c -9.391,-5.563 -16,-15.375 -16,-27.094 0,-17.688 14.328,-32 32,-32 17.672,0 32,14.313 32,32 0,11.719 -6.609,21.531 -16,27.094 z M 256,224 H 128 v -96 c 0,-35.313 28.703,-64 64,-64 35.281,0 64,28.688 64,64 z"
     id="path1" /></svg>
