<?xml version="1.0" encoding="UTF-8" standalone="no"?>
<svg
   viewBox="0 0 24 29.997999"
   version="1.1"
   xml:space="preserve"
   x="0px"
   y="0px"
   fill-rule="evenodd"
   clip-rule="evenodd"
   stroke-linejoin="round"
   stroke-miterlimit="2"
   id="svg1"
   sodipodi:docname="Report-Icon.svg"
   width="24"
   height="29.997999"
   inkscape:version="1.4.2 (f4327f4, 2025-05-13)"
   xmlns:inkscape="http://www.inkscape.org/namespaces/inkscape"
   xmlns:sodipodi="http://sodipodi.sourceforge.net/DTD/sodipodi-0.dtd"
   xmlns="http://www.w3.org/2000/svg"
   xmlns:svg="http://www.w3.org/2000/svg"><defs
     id="defs1" /><sodipodi:namedview
     id="namedview1"
     pagecolor="#ffffff"
     bordercolor="#000000"
     borderopacity="0.25"
     inkscape:showpageshadow="2"
     inkscape:pageopacity="0.0"
     inkscape:pagecheckerboard="0"
     inkscape:deskcolor="#d1d1d1"
     inkscape:zoom="20.175"
     inkscape:cx="11.995043"
     inkscape:cy="19.008674"
     inkscape:window-width="1920"
     inkscape:window-height="1009"
     inkscape:window-x="1912"
     inkscape:window-y="-8"
     inkscape:window-maximized="1"
     inkscape:current-layer="svg1" /><path
     d="M 3,6 C 1.939,6 1.922,6.421 1.172,7.171 0.421,7.921 0,8.939 0,10 v 15.998 c 0,2.209 1.791,4 4,4 3.097,0 7.903,0 11,0 2.209,0 4,-1.791 4,-4 0,0 0,-0.005 -10,0 -3.5,0.002 -6,-2.5 -6,-6 z M 17,0 H 9 C 6.791,0 5,1.791 5,4 c 0,4.202 0,11.796 0,15.998 0,2.209 1.791,4 4,4 3.097,0 7.903,0 11,0 2.209,0 4,-1.791 4,-4 v -13 h -5 c -1,0 -2,-0.998 -2,-2 z m -7,18.999 h 9 c 0.552,0 1,-0.448 1,-1 0,-0.552 -0.448,-1 -1,-1 h -9 c -0.552,0 -1,0.448 -1,1 0,0.552 0.448,1 1,1 z m 0,-4.002 h 9 c 0.552,0 1,-0.448 1,-1 0,-0.552 -0.448,-1 -1,-1 h -9 c -0.552,0 -1,0.448 -1,1 0,0.552 0.448,1 1,1 z m 0,-3.999 h 5 c 0.552,0 1,-0.448 1,-1 0,-0.552 -0.448,-1 -1,-1 h -5 c -0.552,0 -1,0.448 -1,1 0,0.552 0.448,1 1,1 z m 0,-4 h 3 c 0.552,0 1,-0.448 1,-1 0,-0.552 -0.448,-1 -1,-1 h -3 c -0.552,0 -1,0.448 -1,1 0,0.552 0.448,1 1,1 z m 9,-2 V 0.563 l 4.415,4.435 z"
     id="path1" /></svg>
