<?xml version="1.0" encoding="UTF-8" standalone="no"?>
<svg
   x="0px"
   y="0px"
   xml:space="preserve"
   version="1.1"
   id="svg1"
   sodipodi:docname="Torso-Icon.svg"
   inkscape:version="1.4.2 (f4327f4, 2025-05-13)"
   width="77.599998"
   height="100.10459"
   xmlns:inkscape="http://www.inkscape.org/namespaces/inkscape"
   xmlns:sodipodi="http://sodipodi.sourceforge.net/DTD/sodipodi-0.dtd"
   xmlns="http://www.w3.org/2000/svg"
   xmlns:svg="http://www.w3.org/2000/svg"><defs
     id="defs1" /><sodipodi:namedview
     id="namedview1"
     pagecolor="#ffffff"
     bordercolor="#000000"
     borderopacity="0.25"
     inkscape:showpageshadow="2"
     inkscape:pageopacity="0.0"
     inkscape:pagecheckerboard="0"
     inkscape:deskcolor="#d1d1d1"
     inkscape:zoom="4.5650814"
     inkscape:cx="13.800411"
     inkscape:cy="54.873063"
     inkscape:window-width="1920"
     inkscape:window-height="1009"
     inkscape:window-x="1912"
     inkscape:window-y="-8"
     inkscape:window-maximized="1"
     inkscape:current-layer="svg1" /><style
     type="text/css"
     id="style1">
	.st0{fill-rule:evenodd;clip-rule:evenodd;}
</style><path
     d="m 0,84.827 v 15.068408 l 77.6,0.209182 V 84.827 C 76.4,80.61752 72.8,69.561664 67.3,66.088843 68.1,66.615028 65.8,64.931236 65,64.510288 L 51,57.354171 c -1.8,-0.947133 -2.9,-2.841399 -2.9,-4.94614 v -5.682798 c 0.4,-0.420948 0.8,-1.05237 1.3,-1.789029 1.9,-2.736163 3.3,-5.788036 4.3,-9.050383 1.8,-0.526185 3.1,-2.315214 3.1,-4.314718 v -5.893272 c 0,-1.368081 -0.6,-2.525689 -1.5,-3.367585 V 13.575574 C 55.3,13.575574 57,0 39.2,0 21.6,0.105237 23.3,13.680811 23.3,13.680811 v 8.734672 c -0.9,0.841896 -1.5,1.999504 -1.5,3.367585 v 5.998509 c 0,1.578555 0.8,2.946637 2,3.788533 1.5,6.524694 5.4,11.155123 5.4,11.155123 v 5.472324 c 0,1.999504 -1.1,3.89377 -2.8,4.840903 l -13,7.366591 c -0.8,0.420948 -2.9,1.894266 -2.1,1.578555 C 4.5,69.140716 0.7,79.354676 0,84.827 Z"
     id="path1"
     style="stroke-width:1.026;stroke-dasharray:none"
     sodipodi:nodetypes="cccccccscccsscccccssccscccc" /></svg>
