<?xml version="1.0" encoding="UTF-8" standalone="no"?>
<svg
   version="1.1"
   viewBox="-5 -10 58.335999 87.5"
   id="svg2"
   sodipodi:docname="User-Icon.svg"
   width="58.335999"
   height="87.5"
   inkscape:version="1.4.2 (f4327f4, 2025-05-13)"
   xmlns:inkscape="http://www.inkscape.org/namespaces/inkscape"
   xmlns:sodipodi="http://sodipodi.sourceforge.net/DTD/sodipodi-0.dtd"
   xmlns="http://www.w3.org/2000/svg"
   xmlns:svg="http://www.w3.org/2000/svg">
  <defs
     id="defs2" />
  <sodipodi:namedview
     id="namedview2"
     pagecolor="#ffffff"
     bordercolor="#000000"
     borderopacity="0.25"
     inkscape:showpageshadow="2"
     inkscape:pageopacity="0.0"
     inkscape:pagecheckerboard="0"
     inkscape:deskcolor="#d1d1d1"
     inkscape:zoom="5.9777778"
     inkscape:cx="29.275093"
     inkscape:cy="49.098513"
     inkscape:window-width="1920"
     inkscape:window-height="1009"
     inkscape:window-x="1912"
     inkscape:window-y="-8"
     inkscape:window-maximized="1"
     inkscape:current-layer="svg2" />
  <g
     id="g2"
     transform="translate(-25.8318,-18.332)">
    <path
       d="M 70.832,29.168 C 70.832,40.672 61.5078,50 50,50 38.4922,50 29.168,40.6719 29.168,29.168 29.168,17.66 38.4922,8.332 50,8.332 c 11.5078,0 20.832,9.3281 20.832,20.836"
       id="path1" />
    <path
       d="m 37.5,54.168 h 25 c 4.4219,0 8.6602,1.7539 11.785,4.8789 3.1248,3.125 4.8828,7.3672 4.8828,11.785 v 20.836 c 0,1.1055 -0.44141,2.1641 -1.2227,2.9453 -0.78129,0.7812 -1.8398,1.2188 -2.9453,1.2188 h -50 c -2.3008,0 -4.168,-1.8633 -4.168,-4.1641 v -20.836 c 0,-4.418 1.7578,-8.6602 4.8828,-11.785 3.125,-3.1248 7.3633,-4.8789 11.785,-4.8789 z"
       id="path2" />
  </g>
</svg>
